<mxfile host="app.diagrams.net" modified="2022-08-31T05:39:43.898Z" agent="5.0 (Windows NT 10.0; Win64; x64) AppleWebKit/537.36 (KHTML, like Gecko) Chrome/104.0.0.0 Safari/537.36" etag="6hHPVtnhoix-gNXwwRdW" version="20.2.5" type="github">
  <diagram id="uND2nv7Y5iFm22JTDvSD" name="Page-1">
    <mxGraphModel dx="2249" dy="738" grid="1" gridSize="10" guides="1" tooltips="1" connect="1" arrows="1" fold="1" page="1" pageScale="1" pageWidth="827" pageHeight="1169" math="0" shadow="0">
      <root>
        <mxCell id="0" />
        <mxCell id="1" parent="0" />
        <mxCell id="ojjE99YVMprdqWIMOLfo-25" value="" style="rounded=0;whiteSpace=wrap;html=1;dashed=1;" vertex="1" parent="1">
          <mxGeometry x="-110" y="50" width="1050" height="800" as="geometry" />
        </mxCell>
        <mxCell id="ojjE99YVMprdqWIMOLfo-1" value="" style="rounded=0;whiteSpace=wrap;html=1;" vertex="1" parent="1">
          <mxGeometry x="70" y="95" width="350" height="585" as="geometry" />
        </mxCell>
        <mxCell id="ojjE99YVMprdqWIMOLfo-20" value="" style="rounded=0;whiteSpace=wrap;html=1;dashed=1;" vertex="1" parent="1">
          <mxGeometry x="130" y="200" width="580" height="190" as="geometry" />
        </mxCell>
        <mxCell id="ojjE99YVMprdqWIMOLfo-2" value="CAE的三方库包含" style="text;html=1;align=center;verticalAlign=middle;resizable=0;points=[];autosize=1;strokeColor=none;fillColor=none;" vertex="1" parent="1">
          <mxGeometry x="180" y="70" width="120" height="30" as="geometry" />
        </mxCell>
        <mxCell id="ojjE99YVMprdqWIMOLfo-3" value="Real 3rd lib" style="rounded=0;whiteSpace=wrap;html=1;" vertex="1" parent="1">
          <mxGeometry x="180" y="125" width="120" height="60" as="geometry" />
        </mxCell>
        <mxCell id="ojjE99YVMprdqWIMOLfo-5" value="ZwMath" style="rounded=0;whiteSpace=wrap;html=1;" vertex="1" parent="1">
          <mxGeometry x="180" y="220" width="120" height="60" as="geometry" />
        </mxCell>
        <mxCell id="ojjE99YVMprdqWIMOLfo-6" value="ZW3D" style="rounded=0;whiteSpace=wrap;html=1;" vertex="1" parent="1">
          <mxGeometry x="180" y="310" width="120" height="60" as="geometry" />
        </mxCell>
        <mxCell id="ojjE99YVMprdqWIMOLfo-7" value="ZWSim" style="rounded=0;whiteSpace=wrap;html=1;" vertex="1" parent="1">
          <mxGeometry x="180" y="452.5" width="120" height="60" as="geometry" />
        </mxCell>
        <mxCell id="ojjE99YVMprdqWIMOLfo-9" value="Solver_Structural" style="rounded=0;whiteSpace=wrap;html=1;" vertex="1" parent="1">
          <mxGeometry x="550" y="585" width="120" height="60" as="geometry" />
        </mxCell>
        <mxCell id="ojjE99YVMprdqWIMOLfo-10" value="" style="endArrow=classic;html=1;rounded=0;exitX=1;exitY=0.5;exitDx=0;exitDy=0;entryX=0;entryY=0.5;entryDx=0;entryDy=0;" edge="1" parent="1" target="ojjE99YVMprdqWIMOLfo-9">
          <mxGeometry width="50" height="50" relative="1" as="geometry">
            <mxPoint x="302.5" y="615" as="sourcePoint" />
            <mxPoint x="442.5" y="710" as="targetPoint" />
          </mxGeometry>
        </mxCell>
        <mxCell id="ojjE99YVMprdqWIMOLfo-11" value="Solver_Matrix" style="rounded=0;whiteSpace=wrap;html=1;" vertex="1" parent="1">
          <mxGeometry x="550" y="220" width="120" height="60" as="geometry" />
        </mxCell>
        <mxCell id="ojjE99YVMprdqWIMOLfo-12" value="" style="endArrow=classic;html=1;rounded=0;exitX=1;exitY=0.5;exitDx=0;exitDy=0;entryX=0;entryY=0.5;entryDx=0;entryDy=0;" edge="1" parent="1">
          <mxGeometry width="50" height="50" relative="1" as="geometry">
            <mxPoint x="300" y="249.5" as="sourcePoint" />
            <mxPoint x="550" y="249.5" as="targetPoint" />
          </mxGeometry>
        </mxCell>
        <mxCell id="ojjE99YVMprdqWIMOLfo-16" value="zdf 文件更改，提交ZWSim的分支会通过写PostBuild将编译后所需的文件复制到三方库的该文件夹；&lt;br&gt;&lt;br&gt;zdf是结构库依赖的一个lib" style="rounded=0;whiteSpace=wrap;html=1;align=left;spacingRight=3;spacingLeft=3;" vertex="1" parent="1">
          <mxGeometry x="525" y="410" width="170" height="145" as="geometry" />
        </mxCell>
        <mxCell id="ojjE99YVMprdqWIMOLfo-17" value="" style="endArrow=classic;html=1;rounded=0;exitX=1;exitY=0.5;exitDx=0;exitDy=0;entryX=0;entryY=0.5;entryDx=0;entryDy=0;" edge="1" parent="1" source="ojjE99YVMprdqWIMOLfo-7" target="ojjE99YVMprdqWIMOLfo-16">
          <mxGeometry width="50" height="50" relative="1" as="geometry">
            <mxPoint x="400" y="597.5" as="sourcePoint" />
            <mxPoint x="450" y="547.5" as="targetPoint" />
          </mxGeometry>
        </mxCell>
        <mxCell id="ojjE99YVMprdqWIMOLfo-18" value="ZW3D" style="rounded=0;whiteSpace=wrap;html=1;" vertex="1" parent="1">
          <mxGeometry x="550" y="310" width="120" height="60" as="geometry" />
        </mxCell>
        <mxCell id="ojjE99YVMprdqWIMOLfo-19" value="" style="endArrow=classic;html=1;rounded=0;exitX=1;exitY=0.5;exitDx=0;exitDy=0;" edge="1" parent="1" source="ojjE99YVMprdqWIMOLfo-6" target="ojjE99YVMprdqWIMOLfo-18">
          <mxGeometry width="50" height="50" relative="1" as="geometry">
            <mxPoint x="440" y="365" as="sourcePoint" />
            <mxPoint x="490" y="315" as="targetPoint" />
          </mxGeometry>
        </mxCell>
        <mxCell id="ojjE99YVMprdqWIMOLfo-21" value="矩阵求解器是最底层的，需要先编译；&lt;br&gt;ZW3D也要先编译，这两个是独立的，不用分顺序" style="text;html=1;strokeColor=none;fillColor=none;align=left;verticalAlign=middle;whiteSpace=wrap;rounded=0;dashed=1;" vertex="1" parent="1">
          <mxGeometry x="440" y="170" width="310" height="30" as="geometry" />
        </mxCell>
        <mxCell id="ojjE99YVMprdqWIMOLfo-22" value="ZWSolver" style="rounded=0;whiteSpace=wrap;html=1;" vertex="1" parent="1">
          <mxGeometry x="182.5" y="585" width="120" height="60" as="geometry" />
        </mxCell>
        <mxCell id="ojjE99YVMprdqWIMOLfo-24" value="结构库编译之后会把ZWStructural文件夹里的文件拷贝到三方库中（这里是编译的过程自动链接的）；&lt;br&gt;测试机跑宏的时候会把三方库里这一部分文件在自动化流程中拷贝到Source仓库里，给Source库的ZWSim.sln编译之后跑宏。&lt;br&gt;所以本地跑宏之前也要把三方库的文件拷贝到Source中去；&lt;br&gt;如果只是编译 不用跑宏，那么就不需要做这一步，我们不需要在source中提交这一部分更改" style="text;html=1;strokeColor=none;fillColor=none;align=left;verticalAlign=middle;whiteSpace=wrap;rounded=0;dashed=1;" vertex="1" parent="1">
          <mxGeometry x="480" y="660" width="300" height="120" as="geometry" />
        </mxCell>
      </root>
    </mxGraphModel>
  </diagram>
</mxfile>
